<?xml version="1.0" encoding="UTF-8" standalone="no"?> <!-- Created with Vectornator for iOS (http://vectornator.io/) --><!DOCTYPE svg PUBLIC "-//W3C//DTD SVG 1.1//EN" "http://www.w3.org/Graphics/SVG/1.1/DTD/svg11.dtd">
<svg style="fill-rule:nonzero;clip-rule:evenodd;stroke-linecap:round;stroke-linejoin:round;" xmlns:vectornator="http://vectornator.io" xmlns:xlink="http://www.w3.org/1999/xlink" xmlns="http://www.w3.org/2000/svg" xml:space="preserve" version="1.1" viewBox="0 0 1024 1024">
<metadata>
<vectornator:setting key="DimensionsVisible" value="1"/>
<vectornator:setting key="PencilOnly" value="0"/>
<vectornator:setting key="SnapToPoints" value="0"/>
<vectornator:setting key="OutlineMode" value="0"/>
<vectornator:setting key="CMYKEnabledKey" value="0"/>
<vectornator:setting key="RulersVisible" value="1"/>
<vectornator:setting key="SnapToEdges" value="0"/>
<vectornator:setting key="GuidesVisible" value="1"/>
<vectornator:setting key="DisplayWhiteBackground" value="0"/>
<vectornator:setting key="doHistoryDisabled" value="0"/>
<vectornator:setting key="SnapToGuides" value="1"/>
<vectornator:setting key="TimeLapseWatermarkDisabled" value="0"/>
<vectornator:setting key="Units" value="Pixels"/>
<vectornator:setting key="DynamicGuides" value="0"/>
<vectornator:setting key="IsolateActiveLayer" value="0"/>
<vectornator:setting key="SnapToGrid" value="0"/>
</metadata>
<defs>
<linearGradient y1="282.381" id="LinearGradient" x1="112.261" y2="282.381" x2="483.58" gradientUnits="userSpaceOnUse" gradientTransform="matrix(1.24723 0.0153837 -0.0138278 1.38757 -110.996 105.487)">
<stop stop-opacity="0.981259" stop-color="#2a79e2" offset="0.100747"/>
<stop stop-color="#0093df" offset="0.981149"/>
</linearGradient>
<linearGradient y1="282.381" id="LinearGradient_2" x1="112.261" y2="282.381" x2="483.58" gradientUnits="userSpaceOnUse" gradientTransform="matrix(0.654094 -1.22382 1.22382 0.654094 -284.577 684.659)">
<stop stop-color="#009bdf" offset="0.0497801"/>
<stop stop-color="#006896" offset="1"/>
</linearGradient>
<linearGradient y1="282.381" id="LinearGradient_3" x1="112.261" y2="282.381" x2="483.58" gradientUnits="userSpaceOnUse" gradientTransform="matrix(-0.632799 -1.23497 1.23497 -0.632799 275.427 1053.96)">
<stop stop-color="#008fdf" offset="0"/>
<stop stop-color="#006896" offset="0.783587"/>
</linearGradient>
<linearGradient y1="282.381" id="LinearGradient_4" x1="112.261" y2="282.381" x2="483.58" gradientUnits="userSpaceOnUse" gradientTransform="matrix(-0.0165602 1.28145 -1.38755 -0.0152939 1113.2 125.183)">
<stop stop-color="#0069df" offset="0.0497801"/>
<stop stop-color="#006896" offset="0.97001"/>
</linearGradient>
<linearGradient y1="282.074" id="LinearGradient_5" x1="113.966" y2="282.381" x2="483.58" gradientUnits="userSpaceOnUse" gradientTransform="matrix(-0.949163 -0.00721196 0.00545217 -1.25552 1102.01 1036.4)">
<stop stop-color="#009bdf" offset="0.0497801"/>
<stop stop-color="#006896" offset="1"/>
</linearGradient>
</defs>
<g id="Layer 1" vectornator:layerName="Layer 1">
<g opacity="1">
<path stroke="#000000" stroke-opacity="0" stroke-width="1" d="M88.1679+430.427L426.565+434.601C461.006+435.026+488.617+466.432+488.235+504.748L488.235+504.748C487.853+543.065+459.624+573.782+425.182+573.358L86.7851+569.184C52.3438+568.759+24.7331+537.353+25.115+499.036L25.115+499.036C25.4968+460.72+53.7266+430.002+88.1679+430.427Z" fill="url(#LinearGradient)" stroke-linecap="butt" opacity="1" stroke-linejoin="round"/>
<path stroke="#000000" stroke-opacity="0" stroke-width="1" d="M105.95+638.079L283.418+306.032C301.48+272.237+343.518+259.483+377.313+277.546L377.313+277.546C411.108+295.608+423.862+337.647+405.8+371.442L228.332+703.488C210.27+737.283+168.231+750.037+134.436+731.975L134.436+731.975C100.641+713.912+87.8873+671.874+105.95+638.079Z" fill="url(#LinearGradient_2)" stroke-linecap="butt" opacity="1" stroke-linejoin="round"/>
<path stroke="#000000" stroke-opacity="0" stroke-width="1" d="M459.732+706.526L288.041+371.456C270.567+337.353+284.047+295.541+318.15+278.067L318.15+278.067C352.253+260.593+394.064+274.073+411.538+308.176L583.229+643.246C600.703+677.349+587.223+719.16+553.12+736.634L553.12+736.634C519.017+754.109+477.206+740.629+459.732+706.526Z" fill="url(#LinearGradient_3)" stroke-linecap="butt" opacity="1" stroke-linejoin="round"/>
<path stroke="#000000" stroke-opacity="0" stroke-width="1" d="M788.07+329.559L783.577+677.24C783.12+712.627+751.688+740.97+713.371+740.548L713.371+740.548C675.055+740.126+644.364+711.097+644.822+675.711L649.315+328.029C649.772+292.643+681.204+264.299+719.521+264.721L719.521+264.721C757.837+265.144+788.528+294.172+788.07+329.559Z" fill="url(#LinearGradient_4)" stroke-linecap="butt" opacity="1" stroke-linejoin="round"/>
<path stroke="#000000" stroke-opacity="0" stroke-width="1" d="M949.268+743.472L691.743+741.516C665.532+741.317+644.406+713.049+644.557+678.379L644.557+678.379C644.708+643.709+666.077+615.764+692.288+615.963L949.814+617.92C976.024+618.119+997.15+646.387+996.999+681.057L996.999+681.057C996.849+715.727+975.479+743.672+949.268+743.472Z" fill="url(#LinearGradient_5)" stroke-linecap="butt" opacity="1" stroke-linejoin="round"/>
</g>
</g>
</svg>
